<?xml version="1.0" encoding="utf-8"?>
<!-- Generator: Adobe Illustrator 25.2.1, SVG Export Plug-In . SVG Version: 6.00 Build 0)  -->
<svg version="1.1" id="Camada_1" xmlns="http://www.w3.org/2000/svg" xmlns:xlink="http://www.w3.org/1999/xlink" x="0px" y="0px"
	 viewBox="0 0 24 24" style="enable-background:new 0 0 24 24;" xml:space="preserve">
<style type="text/css">
	.st0{fill:url(#SVGID_1_);}
	.st1{fill:url(#SVGID_2_);}
	.st2{fill:url(#SVGID_3_);}
	.st3{fill:url(#SVGID_4_);}
	.st4{fill:url(#SVGID_5_);}
	.st5{fill:url(#SVGID_6_);}
	.st6{fill:url(#SVGID_7_);}
	.st7{fill:url(#SVGID_8_);}
</style>
<g>
	<linearGradient id="SVGID_1_" gradientUnits="userSpaceOnUse" x1="64.7567" y1="-7.0058" x2="152.2941" y2="-7.0058">
		<stop  offset="0" style="stop-color:#F67E45"/>
		<stop  offset="0.2789" style="stop-color:#EB2B3D"/>
		<stop  offset="0.4497" style="stop-color:#95031D"/>
		<stop  offset="0.7161" style="stop-color:#56000A"/>
		<stop  offset="0.9447" style="stop-color:#4A0006"/>
	</linearGradient>
	<path class="st0" d="M103.8,11.5c0,0-20.4-4.4-13.9-14.1c0,0,5.3-8.6,17.2-8.9c0,0,26.4-2.6,45.2,27.4l-5.1-28
		c0,0-34-23.5-58.6-16.5c0,0-18.9,6.5-23.9,13.1c0,0-0.7,7.5,10.4,16.5C75.1,1,82.6,7.3,103.8,11.5z"/>
	<linearGradient id="SVGID_2_" gradientUnits="userSpaceOnUse" x1="64.852" y1="51.9488" x2="146.8824" y2="51.9488">
		<stop  offset="0" style="stop-color:#F67E45"/>
		<stop  offset="0.4899" style="stop-color:#EB2B3D"/>
		<stop  offset="0.7563" style="stop-color:#95031D"/>
		<stop  offset="1" style="stop-color:#4A0006"/>
	</linearGradient>
	<path class="st1" d="M64.9,21.5c0,0,4.9,27.6,42.4,38.4c0,0,14.3-11.4,16.1-17.2c0.8-2.4,2.9-6.9-4.5-9.2c0,0,18,0.5,28,14.2
		c0,0-4.3,12.6-18.5,22.1c-4.9,3.3-20.1,12.5-20.1,12.5s-25-12.8-36.9-29.2C66.8,46.8,64.6,37.8,64.9,21.5z"/>
	<linearGradient id="SVGID_3_" gradientUnits="userSpaceOnUse" x1="64.7463" y1="-5.7078" x2="154.5294" y2="-5.7078">
		<stop  offset="0.2412" style="stop-color:#4A0006"/>
		<stop  offset="0.4648" style="stop-color:#95031D"/>
		<stop  offset="0.7563" style="stop-color:#EB2B3D"/>
		<stop  offset="1" style="stop-color:#F67E45"/>
	</linearGradient>
	<path class="st2" d="M64.7-15.6c0,0,26.3-18,48.1-6.3c13.2,7,24.6,12.2,41.6,42.8v-34.8c0,0-20.4-17.4-47.5-18.4
		C95.7-32.6,82-33.3,64.7-15.6z"/>
	<linearGradient id="SVGID_4_" gradientUnits="userSpaceOnUse" x1="63.5882" y1="20.2282" x2="152.7177" y2="20.2282">
		<stop  offset="0" style="stop-color:#4A0006"/>
		<stop  offset="0.2638" style="stop-color:#95031D"/>
		<stop  offset="0.7563" style="stop-color:#EB2B3D"/>
		<stop  offset="1" style="stop-color:#F67E45"/>
	</linearGradient>
	<path class="st3" d="M63.6,10.5l1.2-26c0,0,3.9,12.8,21.9,20.9c6.4,2.9,11.6,5,27.5,4.9c9,0,26.4-0.5,34.8,9.9c0,0,5.4,6.1,3.2,16
		c0,0-3.6,11.9-9.7,19.7c0,0,4.9-17.3-30.1-22.1c-8.7-1.2-25.9-1.1-34.6-5.8C72.8,25.4,66.8,22,63.6,10.5z"/>
</g>
<g>
	<linearGradient id="SVGID_5_" gradientUnits="userSpaceOnUse" x1="3.3729" y1="5.3544" x2="21.5507" y2="5.3544">
		<stop  offset="0" style="stop-color:#F67E45"/>
		<stop  offset="0.2789" style="stop-color:#EB2B3D"/>
		<stop  offset="0.4497" style="stop-color:#95031D"/>
		<stop  offset="0.7161" style="stop-color:#56000A"/>
		<stop  offset="0.9447" style="stop-color:#4A0006"/>
	</linearGradient>
	<path class="st4" d="M11.5,9.2c0,0-4.2-0.9-2.9-2.9c0,0,1.1-1.8,3.6-1.9c0,0,5.5-0.5,9.4,5.7l-1.1-5.8c0,0-7.1-4.9-12.2-3.4
		c0,0-3.9,1.3-5,2.7c0,0-0.1,1.6,2.2,3.4C5.5,7,7.1,8.3,11.5,9.2z"/>
	<linearGradient id="SVGID_6_" gradientUnits="userSpaceOnUse" x1="3.3927" y1="17.5968" x2="20.427" y2="17.5968">
		<stop  offset="0" style="stop-color:#F67E45"/>
		<stop  offset="0.4899" style="stop-color:#EB2B3D"/>
		<stop  offset="0.7563" style="stop-color:#95031D"/>
		<stop  offset="1" style="stop-color:#4A0006"/>
	</linearGradient>
	<path class="st5" d="M3.4,11.3c0,0,1,5.7,8.8,8c0,0,3-2.4,3.3-3.6c0.2-0.5,0.6-1.4-0.9-1.9c0,0,3.7,0.1,5.8,3c0,0-0.9,2.6-3.8,4.6
		c-1,0.7-4.2,2.6-4.2,2.6s-5.2-2.7-7.7-6.1C3.8,16.5,3.3,14.7,3.4,11.3z"/>
	<linearGradient id="SVGID_7_" gradientUnits="userSpaceOnUse" x1="3.3708" y1="5.624" x2="22.0149" y2="5.624">
		<stop  offset="0.2412" style="stop-color:#4A0006"/>
		<stop  offset="0.4648" style="stop-color:#95031D"/>
		<stop  offset="0.7563" style="stop-color:#EB2B3D"/>
		<stop  offset="1" style="stop-color:#F67E45"/>
	</linearGradient>
	<path class="st6" d="M3.4,3.6c0,0,5.5-3.7,10-1.3c2.7,1.5,5.1,2.5,8.6,8.9V3.9c0,0-4.2-3.6-9.9-3.8C9.8,0,7-0.1,3.4,3.6z"/>
	<linearGradient id="SVGID_8_" gradientUnits="userSpaceOnUse" x1="3.1303" y1="11.0098" x2="21.6387" y2="11.0098">
		<stop  offset="0" style="stop-color:#4A0006"/>
		<stop  offset="0.2638" style="stop-color:#95031D"/>
		<stop  offset="0.7563" style="stop-color:#EB2B3D"/>
		<stop  offset="1" style="stop-color:#F67E45"/>
	</linearGradient>
	<path class="st7" d="M3.1,9l0.2-5.4c0,0,0.8,2.7,4.5,4.3c1.3,0.6,2.4,1,5.7,1c1.9,0,5.5-0.1,7.2,2.1c0,0,1.1,1.3,0.7,3.3
		c0,0-0.7,2.5-2,4.1c0,0,1-3.6-6.2-4.6c-1.8-0.2-5.4-0.2-7.2-1.2C5.1,12.1,3.8,11.4,3.1,9z"/>
</g>
</svg>
