<?xml version="1.0" encoding="utf-8"?>
<!-- Generator: Adobe Illustrator 25.2.1, SVG Export Plug-In . SVG Version: 6.00 Build 0)  -->
<svg version="1.1" id="Camada_1" xmlns="http://www.w3.org/2000/svg" xmlns:xlink="http://www.w3.org/1999/xlink" x="0px" y="0px"
	 viewBox="0 0 107 24" style="enable-background:new 0 0 107 24;" xml:space="preserve">
<style type="text/css">
	.st0{fill:url(#SVGID_1_);}
	.st1{fill:url(#SVGID_2_);}
	.st2{fill:url(#SVGID_3_);}
	.st3{fill:url(#SVGID_4_);}
	.st4{fill:#FFFFFF;}
</style>
<g>
	<linearGradient id="SVGID_1_" gradientUnits="userSpaceOnUse" x1="3.2268" y1="5.5548" x2="21.4046" y2="5.5548">
		<stop  offset="0" style="stop-color:#F67E45"/>
		<stop  offset="0.2789" style="stop-color:#EB2B3D"/>
		<stop  offset="0.4497" style="stop-color:#95031D"/>
		<stop  offset="0.7161" style="stop-color:#56000A"/>
		<stop  offset="0.9447" style="stop-color:#4A0006"/>
	</linearGradient>
	<path class="st0" d="M11.3,9.4c0,0-4.2-0.9-2.9-2.9c0,0,1.1-1.8,3.6-1.9c0,0,5.5-0.5,9.4,5.7l-1.1-5.8c0,0-7.1-4.9-12.2-3.4
		c0,0-3.9,1.3-5,2.7c0,0-0.1,1.6,2.2,3.4C5.4,7.2,6.9,8.5,11.3,9.4z"/>
	<linearGradient id="SVGID_2_" gradientUnits="userSpaceOnUse" x1="3.2466" y1="17.7972" x2="20.2808" y2="17.7972">
		<stop  offset="0" style="stop-color:#F67E45"/>
		<stop  offset="0.4899" style="stop-color:#EB2B3D"/>
		<stop  offset="0.7563" style="stop-color:#95031D"/>
		<stop  offset="1" style="stop-color:#4A0006"/>
	</linearGradient>
	<path class="st1" d="M3.3,11.5c0,0,1,5.7,8.8,8c0,0,3-2.4,3.3-3.6c0.2-0.5,0.6-1.4-0.9-1.9c0,0,3.7,0.1,5.8,3c0,0-0.9,2.6-3.8,4.6
		c-1,0.7-4.2,2.6-4.2,2.6S7.1,21.5,4.6,18C3.7,16.7,3.2,14.9,3.3,11.5z"/>
	<linearGradient id="SVGID_3_" gradientUnits="userSpaceOnUse" x1="3.2246" y1="5.8243" x2="21.8688" y2="5.8243">
		<stop  offset="0.2412" style="stop-color:#4A0006"/>
		<stop  offset="0.4648" style="stop-color:#95031D"/>
		<stop  offset="0.7563" style="stop-color:#EB2B3D"/>
		<stop  offset="1" style="stop-color:#F67E45"/>
	</linearGradient>
	<path class="st2" d="M3.2,3.8c0,0,5.5-3.7,10-1.3c2.7,1.5,5.1,2.5,8.6,8.9V4.1c0,0-4.2-3.6-9.9-3.8C9.6,0.2,6.8,0.1,3.2,3.8z"/>
	<linearGradient id="SVGID_4_" gradientUnits="userSpaceOnUse" x1="2.9841" y1="11.2101" x2="21.4926" y2="11.2101">
		<stop  offset="0" style="stop-color:#4A0006"/>
		<stop  offset="0.2638" style="stop-color:#95031D"/>
		<stop  offset="0.7563" style="stop-color:#EB2B3D"/>
		<stop  offset="1" style="stop-color:#F67E45"/>
	</linearGradient>
	<path class="st3" d="M3,9.2l0.2-5.4c0,0,0.8,2.7,4.5,4.3c1.3,0.6,2.4,1,5.7,1c1.9,0,5.5-0.1,7.2,2.1c0,0,1.1,1.3,0.7,3.3
		c0,0-0.7,2.5-2,4.1c0,0,1-3.6-6.2-4.6c-1.8-0.2-5.4-0.2-7.2-1.2C4.9,12.3,3.6,11.6,3,9.2z"/>
</g>
<g>
	<path class="st4" d="M28.4,16.7c1,0.5,2.6,1.1,4.3,1.1c1.8,0,2.7-0.7,2.7-1.8c0-1.1-0.8-1.7-2.8-2.4c-2.8-1-4.7-2.5-4.7-5
		c0-2.9,2.4-5.1,6.4-5.1c1.9,0,3.3,0.4,4.3,0.9l-0.9,3.1C37,7,35.8,6.6,34.2,6.6s-2.5,0.8-2.5,1.6c0,1.1,1,1.6,3.1,2.4
		c3,1.1,4.4,2.7,4.4,5.1c0,2.8-2.2,5.3-6.8,5.3c-1.9,0-3.9-0.5-4.8-1L28.4,16.7z"/>
	<path class="st4" d="M50.4,16.3l-1.2,4.4h-4l5.2-17h5l5.3,17h-4.1l-1.3-4.4H50.4z M54.7,13.4l-1.1-3.6c-0.3-1-0.6-2.3-0.9-3.3h-0.1
		c-0.3,1-0.5,2.3-0.8,3.3l-1,3.6H54.7z"/>
	<path class="st4" d="M67.6,3.7H78v3.1h-6.5v3.9h6.1v3.1h-6.1v6.8h-3.8V3.7z"/>
	<path class="st4" d="M95.6,13.5h-6.2v4h7v3.1H85.5v-17H96v3.1h-6.6v3.5h6.2V13.5z"/>
</g>
</svg>
